<svg xmlns="http://www.w3.org/2000/svg" viewBox="0 0 64 64" id="customer-service">
  <path fill="#a9c0f9" d="M56.774,0H7.226A4.142,4.142,0,0,0,3.1,4.13V14.452H60.9V4.13A4.142,4.142,0,0,0,56.774,0ZM10.323,8.259a2.065,2.065,0,1,1,2.064-2.065A2.071,2.071,0,0,1,10.323,8.259Zm8.258,0a2.065,2.065,0,1,1,0-4.129,1.63,1.63,0,0,1,.392.041,2.063,2.063,0,0,1-.392,4.088Zm8.258,0a2.071,2.071,0,1,1,1.785-1.033A2.06,2.06,0,0,1,26.839,8.259Z"></path>
  <path fill="#919de3" d="M60.9,7.226v7.226H3.1V4.13A4.142,4.142,0,0,1,7.226,0H18.973V3.1A4.129,4.129,0,0,0,23.1,7.226Z"></path>
  <path fill="#dbe2ee" d="M60.9,12.388V59.871A4.127,4.127,0,0,1,56.774,64H7.226A4.141,4.141,0,0,1,3.1,59.871V12.388Z"></path>
  <polygon fill="#f2d7b5" points="24.774 45.42 24.774 53.678 21.677 57.807 18.581 53.678 18.581 45.42 24.774 45.42"></polygon>
  <path fill="#f2cb9d" d="M24.774,49.889v3.789l-3.1,4.129-3.1-4.129V45.42h3.1v1.373a3.1,3.1,0,0,0,3.1,3.1Z"></path>
  <path fill="#f9fcbd" d="M27.871,51.613h-3.1l-3.1,4.129-3.1-4.129h-3.1a5.635,5.635,0,0,0-1.032.093,6.183,6.183,0,0,0-5.162,6.1V64H34.065V57.807A6.2,6.2,0,0,0,27.871,51.613Z"></path>
  <path fill="#a9c0f9" d="M55.742,45.42v6.193a3.092,3.092,0,0,1-3.1,3.1H51.613v3.1l-5.161-3.1H42.323a3.092,3.092,0,0,1-3.1-3.1V45.42a3.092,3.092,0,0,1,3.1-3.1H52.645A3.092,3.092,0,0,1,55.742,45.42Zm-8.258,3.107a.01.01,0,0,0,.01-.01h-.02A.01.01,0,0,0,47.484,48.527Zm-4.129,0,.01-.01h-.01Z"></path>
  <path fill="#f9fcbd" d="M52.645,18.581H42.323a3.092,3.092,0,0,0-3.1,3.1v6.193a3.092,3.092,0,0,0,3.1,3.1h1.032v3.1l5.161-3.1h4.129a3.092,3.092,0,0,0,3.1-3.1V21.678A3.092,3.092,0,0,0,52.645,18.581Zm-1.032,6.194h.01l-.01.01Z"></path>
  <path fill="#5e61ab" d="M33.27,19.52a1.035,1.035,0,0,1,1.486,1.095l-.691,4.16V34.86a3.061,3.061,0,0,0-2.065-.8H29.935a.948.948,0,0,0-.825-1.032h-6.4A1.036,1.036,0,0,1,21.677,32V30.968a1.035,1.035,0,0,0-1.032-1.032h-6.4a.949.949,0,0,0-.826,1.032v3.1H11.355a3.059,3.059,0,0,0-2.065.8V21.678a2.071,2.071,0,0,1,2.065-2.065H13a1.041,1.041,0,0,1,.723.3l.124.124,1.641,1.641V20.646a3.113,3.113,0,0,1,.33-1.384,3.071,3.071,0,0,1,2.767-1.713h8.65a3.107,3.107,0,0,1,2.591,1.383l.671,1a1.025,1.025,0,0,0,1.259.372Z"></path>
  <circle cx="26.839" cy="6.194" r="2.065" fill="#f9fcbd"></circle>
  <polygon fill="#ffb09c" points="27.871 51.613 26.839 57.807 21.677 55.742 24.774 51.613 27.871 51.613"></polygon>
  <polygon fill="#ffb09c" points="18.581 51.613 21.677 55.742 16.516 57.807 15.484 51.613 18.581 51.613"></polygon>
  <circle cx="18.581" cy="6.194" r="2.065" fill="#f9fcbd"></circle>
  <path fill="#f2d7b5" d="M14.452,32v6.194h-3.1a3.1,3.1,0,0,1-3.1-3.1,3.108,3.108,0,0,1,3.1-3.1Z"></path>
  <circle cx="10.323" cy="6.194" r="2.065" fill="#f9fcbd"></circle>
  <path fill="#ebdab0" d="M55.742,27.871a3.092,3.092,0,0,1-3.1,3.1H48.516l-5.161,3.1v-3.1H42.323a3.1,3.1,0,0,1-3.1-3.1V21.678a3.1,3.1,0,0,1,3.1-3.1h1.032v5.161a4.128,4.128,0,0,0,4.129,4.129Z"></path>
  <path fill="#919de3" d="M39.226,51.613a3.092,3.092,0,0,0,3.1,3.1h4.129l5.161,3.1v-3.1h1.032a3.1,3.1,0,0,0,3.1-3.1V45.42a3.1,3.1,0,0,0-3.1-3.1H51.613v5.161a4.129,4.129,0,0,1-4.129,4.129Z"></path>
  <path fill="#f2d7b5" d="M35.1,35.1a3.09,3.09,0,0,1-.909,2.189,2.974,2.974,0,0,1-1.218.743,2.746,2.746,0,0,1-.97.165H28.9V32H32a3.108,3.108,0,0,1,3.1,3.1Z"></path>
  <rect width="1.957" height="6.194" x="28.903" y="32" fill="#f2cb9d"></rect>
  <path fill="#f2d7b5" d="M29.935,32v9.291a4.876,4.876,0,0,1-.1,1.032,5.161,5.161,0,0,1-5.058,4.129H18.581a5.164,5.164,0,0,1-5.162-5.161V28.9a.95.95,0,0,1,.826-1.033h6.4A1.035,1.035,0,0,1,21.677,28.9v1.032a1.035,1.035,0,0,0,1.033,1.032h6.4A.949.949,0,0,1,29.935,32Z"></path>
  <path fill="#ffb09c" d="M33.032,36.13A1.031,1.031,0,0,0,32,37.162v4.129H22.71a1.032,1.032,0,1,0,0,2.064H33.032a1.032,1.032,0,0,0,1.033-1.032V37.162A1.032,1.032,0,0,0,33.032,36.13Z"></path>
  <path fill="#f2cb9d" d="M18.581,46.452a5.164,5.164,0,0,1-5.162-5.161V28.9a.95.95,0,0,1,.826-1.033h2.271v13.6a7.049,7.049,0,0,0,2.065,4.984Z"></path>
  <circle cx="18.581" cy="36.135" r="1.037" fill="#5e61ab"></circle>
  <circle cx="24.769" cy="36.135" r="1.037" fill="#5e61ab"></circle>
  <circle cx="43.355" cy="48.517" r="1.037" fill="#5e61ab"></circle>
  <circle cx="47.484" cy="48.522" r="1.037" fill="#5e61ab"></circle>
  <circle cx="51.608" cy="48.517" r="1.037" fill="#5e61ab"></circle>
  <circle cx="51.613" cy="24.775" r="1.037" fill="#5e61ab"></circle>
  <circle cx="47.484" cy="24.78" r="1.037" fill="#5e61ab"></circle>
  <circle cx="43.36" cy="24.775" r="1.037" fill="#5e61ab"></circle>
  <path fill="#5e61ab" d="M18.581 37.172a1.038 1.038 0 1 1 1.037-1.037A1.041 1.041 0 0 1 18.581 37.172zm1.027-1.037h0zm-1.027 0h0zM24.769 37.172a1.038 1.038 0 1 1 1.037-1.037A1.041 1.041 0 0 1 24.769 37.172zM25.8 36.135h0zm-1.027 0h0z"></path>
</svg>
